<svg width="501" height="501" viewBox="0 0 501 501" fill="none" xmlns="http://www.w3.org/2000/svg">
<circle cx="250.085" cy="250.02" r="243.75" fill="#551A78" stroke="white" stroke-width="12.5"/>
<path d="M181.034 377.604L198.319 333.891C176.4 338.708 156.292 341.29 139.75 341.29C136.397 341.29 133.233 341.181 130.259 340.963L111.722 408.252H201.874C198.221 408.249 194.623 407.354 191.395 405.643C188.166 403.933 185.404 401.46 183.35 398.438C181.296 395.417 180.011 391.94 179.607 388.308C179.204 384.677 179.694 381.002 181.034 377.604ZM289.579 225.529H282.979V274.907C313.435 261.419 333.658 247.622 343.957 237.419L321.191 154.724L293.375 53.6943H209.36L181.545 154.724L139.885 305.989C145.082 307.029 150.376 307.507 155.676 307.415C171.159 307.415 190.698 304.524 212.02 299.245L219.727 279.744V225.529H213.137C210.983 225.529 208.917 224.674 207.394 223.15C205.871 221.627 205.015 219.561 205.015 217.407C205.015 215.253 205.871 213.187 207.394 211.664C208.917 210.141 210.983 209.285 213.137 209.285H289.579C291.733 209.285 293.799 210.141 295.322 211.664C296.845 213.187 297.701 215.253 297.701 217.407C297.701 219.561 296.845 221.627 295.322 223.15C293.799 224.674 291.733 225.529 289.579 225.529V225.529ZM243.901 145.677C241.264 145.677 238.686 144.895 236.493 143.43C234.3 141.964 232.591 139.882 231.581 137.445C230.572 135.009 230.308 132.328 230.823 129.741C231.337 127.154 232.607 124.778 234.472 122.914C236.337 121.049 238.713 119.779 241.299 119.264C243.886 118.75 246.567 119.014 249.004 120.023C251.44 121.032 253.523 122.741 254.988 124.934C256.453 127.127 257.235 129.705 257.235 132.342C257.235 135.879 255.83 139.271 253.33 141.771C250.829 144.272 247.437 145.677 243.901 145.677V145.677ZM264.596 184.216C263.14 184.216 261.717 183.784 260.507 182.975C259.296 182.166 258.353 181.017 257.796 179.672C257.239 178.327 257.093 176.847 257.377 175.419C257.661 173.991 258.362 172.679 259.391 171.65C260.421 170.62 261.732 169.919 263.16 169.635C264.588 169.351 266.068 169.497 267.413 170.054C268.758 170.611 269.908 171.555 270.717 172.765C271.525 173.976 271.957 175.399 271.957 176.855C271.961 177.821 271.774 178.779 271.408 179.674C271.042 180.568 270.503 181.382 269.822 182.068C269.141 182.754 268.332 183.3 267.44 183.673C266.548 184.047 265.592 184.241 264.625 184.245L264.596 184.216ZM300.852 408.252H391.004L353.024 270.331C352.474 270.716 351.916 271.111 351.347 271.497C335.354 282.48 315.053 293.358 292.248 303.291L292.595 304.158L321.701 377.642C323.034 381.04 323.518 384.711 323.11 388.338C322.702 391.965 321.415 395.437 319.36 398.453C317.306 401.47 314.546 403.939 311.32 405.646C308.095 407.354 304.501 408.248 300.852 408.252V408.252Z" fill="white"/>
<path d="M102.434 321.539C109.689 342.341 177.412 337.629 253.699 311.009C329.987 284.388 385.936 245.994 378.681 225.192C375.791 216.916 363.371 212.667 344.661 212.253C351.916 214.006 356.666 217.07 358.198 221.464C364.354 239.105 316.922 271.689 252.216 294.244C187.509 316.799 130.202 320.807 124.045 303.166C121.627 296.239 127.504 286.97 139.461 276.931C113.11 293.868 98.5035 310.305 102.434 321.539Z" fill="white"/>
</svg>
